<svg width="54" height="19" viewBox="0 0 54 19" fill="none" xmlns="http://www.w3.org/2000/svg">
<path fill-rule="evenodd" clip-rule="evenodd" d="M49.6305 18.0416C49.6305 18.0416 49.2395 15.6556 49.1085 15.0576H43.4555C43.2995 15.5256 42.5185 18.0416 42.5185 18.0416H37.9065L44.4465 2.44656C44.6089 1.98304 44.9245 1.58876 45.3415 1.32878C45.7575 1.0688 46.2505 0.958666 46.7385 1.01655H50.1515L53.7205 18.0416H49.6305ZM47.3635 7.07159L47.0505 5.61555C46.8425 6.26559 46.4505 7.27959 46.4775 7.25359C46.4775 7.25359 45.0705 11.0216 44.7325 12.0086H48.3795C48.1995 11.1486 47.3635 7.07159 47.3635 7.07159ZM37.8805 4.94155C36.8506 4.47673 35.7278 4.25435 34.5985 4.29155C32.8525 4.29155 32.0705 5.01955 32.0445 5.74655C32.0445 6.55259 32.9835 7.07159 34.5445 7.85159C37.0725 9.05159 38.2445 10.5276 38.2185 12.4756C38.1925 15.9836 35.1965 18.2696 30.5585 18.2696C28.8828 18.2751 27.2209 17.9672 25.6585 17.3616L26.2585 13.5416L26.8585 13.8276C28.1377 14.4563 29.5495 14.7681 30.9745 14.7366C32.2515 14.7366 33.6055 14.2166 33.6325 13.0736C33.6325 12.3206 33.0595 11.7736 31.3395 10.9436C29.6725 10.1376 27.4575 8.78659 27.4835 6.34359C27.5095 3.04355 30.5575 0.730546 34.9085 0.730546C36.26 0.722476 37.6017 0.959656 38.8685 1.43056L38.2685 5.12055L37.8805 4.94155ZM18.4985 18.0416L21.2595 1.01655H25.6595L22.8995 18.0416H18.4985ZM7.89854 18.0416L3.97255 3.27255C3.83855 3.19455 3.69755 3.12355 3.56055 3.04855H6.18855L7.15955 3.73555L8.94055 6.45459L9.69654 8.54259L10.0355 10.2676L10.5045 12.6066L14.8285 1.01655H19.4925L12.5625 18.0416H7.89955H7.89854Z" fill="#1470B0"/>
<path fill-rule="evenodd" clip-rule="evenodd" d="M5.9 5.25659C5.3727 4.84199 4.8052 4.48119 4.206 4.17959L3.955 3.23559C2.7094 2.5214 1.3812 1.96194 0 1.5696V1.0426H6.764C7.1687 1.04358 7.5609 1.18299 7.8754 1.43766C8.1899 1.69234 8.4079 2.04695 8.493 2.44259L9.957 9.89664C8.8744 8.13334 7.503 6.56484 5.9 5.25659Z" fill="#FFB927"/>
</svg>
